{"asset":{"version":"2.0","generator":"Blockbench 4.10.4 glTF exporter"},"scenes":[{"nodes":[2],"name":"blockbench_export"}],"scene":0,"nodes":[{"rotation":[-0.4999999999999998,-0.5,-0.49999999999999956,0.5000000000000007],"translation":[-4.329395341754083e-18,0.5,-3.0231633910399225e-17],"name":"cylinder","mesh":0},{"rotation":[0,0,-0.7071067811865475,0.7071067811865476],"translation":[-4.329395341754083e-18,0.5,-3.0231633910399225e-17],"name":"torus","mesh":1},{"children":[0,1]}],"bufferViews":[{"buffer":0,"byteOffset":0,"byteLength":1440,"target":34962,"byteStride":12},{"buffer":0,"byteOffset":1440,"byteLength":1440,"target":34962,"byteStride":12},{"buffer":0,"byteOffset":2880,"byteLength":960,"target":34962,"byteStride":8},{"buffer":0,"byteOffset":3840,"byteLength":288,"target":34963},{"buffer":0,"byteOffset":4128,"byteLength":3456,"target":34962,"byteStride":12},{"buffer":0,"byteOffset":7584,"byteLength":3456,"target":34962,"byteStride":12},{"buffer":0,"byteOffset":11040,"byteLength":2304,"target":34962,"byteStride":8},{"buffer":0,"byteOffset":13344,"byteLength":864,"target":34963}],"buffers":[{"byteLength":14208,"uri":"data:application/octet-stream;base64,"}],"accessors":[{"bufferView":0,"componentType":5126,"count":120,"max":[0.4375,0.0625,0.4375],"min":[-0.4375,-0.0625,-0.4375],"type":"VEC3"},{"bufferView":1,"componentType":5126,"count":120,"max":[1,1,1],"min":[-1,-1,-1],"type":"VEC3"},{"bufferView":2,"componentType":5126,"count":120,"max":[0.578125,0.625],"min":[0,0],"type":"VEC2"},{"bufferView":3,"componentType":5123,"count":144,"max":[119],"min":[0],"type":"SCALAR"},{"bufferView":4,"componentType":5126,"count":288,"max":[0.4790664613246918,0.09926190227270126,0.4790664613246918],"min":[-0.4790664613246918,-0.09926190227270126,-0.4790664613246918],"type":"VEC3"},{"bufferView":5,"componentType":5126,"count":288,"max":[1,0.9388428926467896,1],"min":[-1,-0.9388428926467896,-1],"type":"VEC3"},{"bufferView":6,"componentType":5126,"count":288,"max":[0.7915843725204468,0.625],"min":[0.0028288864996284246,0],"type":"VEC2"},{"bufferView":7,"componentType":5123,"count":432,"max":[287],"min":[0],"type":"SCALAR"}],"materials":[{"pbrMetallicRoughness":{"metallicFactor":0,"roughnessFactor":1,"baseColorTexture":{"index":0}},"alphaMode":"MASK","alphaCutoff":0.05,"doubleSided":true}],"textures":[{"sampler":0,"source":0,"name":"texture"}],"samplers":[{"magFilter":9728,"minFilter":9728,"wrapS":33071,"wrapT":33071}],"images":[{"mimeType":"image/png","uri":"data:image/png;base64,"}],"meshes":[{"primitives":[{"mode":4,"attributes":{"POSITION":0,"NORMAL":1,"TEXCOORD_0":2},"indices":3,"material":0}]},{"primitives":[{"mode":4,"attributes":{"POSITION":4,"NORMAL":5,"TEXCOORD_0":6},"indices":7,"material":0}]}]}