{"asset":{"version":"2.0","generator":"Blockbench 4.10.3 glTF exporter"},"scenes":[{"nodes":[2],"name":"blockbench_export"}],"scene":0,"nodes":[{"translation":[0,1,0],"name":"cone","mesh":0},{"name":"cylinder","mesh":1},{"children":[0,1]}],"bufferViews":[{"buffer":0,"byteOffset":0,"byteLength":576,"target":34962,"byteStride":12},{"buffer":0,"byteOffset":576,"byteLength":576,"target":34962,"byteStride":12},{"buffer":0,"byteOffset":1152,"byteLength":384,"target":34962,"byteStride":8},{"buffer":0,"byteOffset":1536,"byteLength":96,"target":34963},{"buffer":0,"byteOffset":1632,"byteLength":960,"target":34962,"byteStride":12},{"buffer":0,"byteOffset":2592,"byteLength":960,"target":34962,"byteStride":12},{"buffer":0,"byteOffset":3552,"byteLength":640,"target":34962,"byteStride":8},{"buffer":0,"byteOffset":4192,"byteLength":192,"target":34963}],"buffers":[{"byteLength":4384,"uri":"data:application/octet-stream;base64,"}],"accessors":[{"bufferView":0,"componentType":5126,"count":48,"max":[0.375,0.625,0.375],"min":[-0.375,0,-0.375],"type":"VEC3"},{"bufferView":1,"componentType":5126,"count":48,"max":[0.8574929237365723,0.5144957304000854,0.8574929237365723],"min":[-0.8574929237365723,-1,-0.8574929237365723],"type":"VEC3"},{"bufferView":2,"componentType":5126,"count":48,"max":[0.6540848612785339,0.7956840991973877],"min":[0,0],"type":"VEC2"},{"bufferView":3,"componentType":5123,"count":48,"max":[47],"min":[0],"type":"SCALAR"},{"bufferView":4,"componentType":5126,"count":80,"max":[0.3125,1,0.3125],"min":[-0.3125,0,-0.3125],"type":"VEC3"},{"bufferView":5,"componentType":5126,"count":80,"max":[1,1,1],"min":[-1,-1,-1],"type":"VEC3"},{"bufferView":6,"componentType":5126,"count":80,"max":[0.484375,0.625],"min":[0,0],"type":"VEC2"},{"bufferView":7,"componentType":5123,"count":96,"max":[79],"min":[0],"type":"SCALAR"}],"materials":[{"pbrMetallicRoughness":{"metallicFactor":0,"roughnessFactor":1,"baseColorTexture":{"index":0}},"alphaMode":"MASK","alphaCutoff":0.05,"doubleSided":true}],"textures":[{"sampler":0,"source":0,"name":"texture"}],"samplers":[{"magFilter":9728,"minFilter":9728,"wrapS":33071,"wrapT":33071}],"images":[{"mimeType":"image/png","uri":"data:image/png;base64,"}],"meshes":[{"primitives":[{"mode":4,"attributes":{"POSITION":0,"NORMAL":1,"TEXCOORD_0":2},"indices":3,"material":0}]},{"primitives":[{"mode":4,"attributes":{"POSITION":4,"NORMAL":5,"TEXCOORD_0":6},"indices":7,"material":0}]}]}